<svg width="80" height="80" viewBox="0 0 80 80" fill="none" xmlns="http://www.w3.org/2000/svg">
<rect width="80" height="80" rx="40" fill="#F6F0D0"/>
<g clip-path="url(#clip0_406_128)">
<path d="M51.1111 53.3333H37.7778V44.4445H35.5556V53.3333H28.8889V44.4445H26.6667V53.3333C26.6667 53.9227 26.9008 54.4879 27.3175 54.9047C27.7343 55.3214 28.2995 55.5556 28.8889 55.5556H51.1111C51.7005 55.5556 52.2657 55.3214 52.6825 54.9047C53.0992 54.4879 53.3333 53.9227 53.3333 53.3333V44.4445H51.1111V53.3333Z" fill="#AE9F4B"/>
<path d="M57.5444 34.7445L53.0111 25.6778C52.8271 25.3076 52.5435 24.996 52.1922 24.7781C51.8408 24.5602 51.4356 24.4447 51.0222 24.4445H28.9778C28.5643 24.4447 28.1592 24.5602 27.8078 24.7781C27.4565 24.996 27.1729 25.3076 26.9889 25.6778L22.4555 34.7445C22.3008 35.055 22.2209 35.3975 22.2222 35.7445V39.1667C22.2212 39.6859 22.402 40.1891 22.7333 40.5889C23.2229 41.1502 23.8277 41.5994 24.5064 41.9062C25.1851 42.213 25.9219 42.37 26.6667 42.3667C27.882 42.3686 29.0602 41.9483 30 41.1778C30.9398 41.9488 32.1178 42.3701 33.3333 42.3701C34.5489 42.3701 35.7269 41.9488 36.6667 41.1778C37.6064 41.9488 38.7844 42.3701 40 42.3701C41.2156 42.3701 42.3935 41.9488 43.3333 41.1778C44.2731 41.9488 45.4511 42.3701 46.6667 42.3701C47.8822 42.3701 49.0602 41.9488 50 41.1778C51.0491 42.0392 52.3912 42.4602 53.7443 42.3525C55.0974 42.2447 56.356 41.6165 57.2555 40.6C57.5908 40.2017 57.7757 39.6984 57.7778 39.1778V35.7445C57.7791 35.3975 57.6992 35.055 57.5444 34.7445ZM53.3333 40.1445C52.8587 40.1433 52.3913 40.0288 51.97 39.8104C51.5486 39.592 51.1856 39.2761 50.9111 38.8889L50 37.6445L49.1 38.8889C48.8203 39.2701 48.4548 39.5801 48.033 39.7938C47.6112 40.0075 47.145 40.1188 46.6722 40.1188C46.1994 40.1188 45.7332 40.0075 45.3114 39.7938C44.8897 39.5801 44.5241 39.2701 44.2444 38.8889L43.3333 37.6445L42.4333 38.8889C42.1536 39.2701 41.7881 39.5801 41.3663 39.7938C40.9445 40.0075 40.4784 40.1188 40.0055 40.1188C39.5327 40.1188 39.0666 40.0075 38.6448 39.7938C38.223 39.5801 37.8575 39.2701 37.5778 38.8889L36.6667 37.6445L35.7667 38.8889C35.487 39.2701 35.1214 39.5801 34.6997 39.7938C34.2779 40.0075 33.8117 40.1188 33.3389 40.1188C32.8661 40.1188 32.3999 40.0075 31.9781 39.7938C31.5563 39.5801 31.1908 39.2701 30.9111 38.8889L30 37.6445L29.0889 38.8889C28.8144 39.2761 28.4514 39.592 28.03 39.8104C27.6087 40.0288 27.1412 40.1433 26.6667 40.1445C26.2479 40.1495 25.8329 40.0649 25.4496 39.8963C25.0663 39.7276 24.7236 39.4788 24.4444 39.1667V35.7445L28.9778 26.6667H51.0222L55.5555 35.7333V39.1333C55.2781 39.4499 54.9364 39.7038 54.5533 39.8781C54.1701 40.0524 53.7543 40.1432 53.3333 40.1445Z" fill="#AE9F4B"/>
</g>
<defs>
<clipPath id="clip0_406_128">
<rect width="40" height="40" fill="white" transform="translate(20 20)"/>
</clipPath>
</defs>
</svg>
