<svg width="50" height="39" viewBox="0 0 50 39" fill="none" xmlns="http://www.w3.org/2000/svg">
<path d="M2.72397 17.9177C0.90799 15.9403 0 13.4383 0 10.4116C0 7.38499 0.988701 4.90315 2.9661 2.9661C4.9435 0.988701 7.42534 0 10.4116 0C13.8822 0 16.6465 1.33172 18.7046 3.99516C20.8031 6.6586 21.8523 10.1695 21.8523 14.5278C21.8523 19.1283 20.7425 23.7086 18.523 28.2688C16.3035 32.8289 13.4786 36.3801 10.0484 38.9225L0.847458 35.7143C3.43019 33.6158 5.54883 31.1743 7.20339 28.3898C8.85795 25.6053 9.68523 23.0831 9.68523 20.8232C6.86037 20.8232 4.53995 19.8547 2.72397 17.9177ZM28.0266 10.4116C28.0266 7.42534 29.0355 4.9435 31.0533 2.9661C33.071 0.988701 35.573 0 38.5593 0C41.9895 0 44.7538 1.3519 46.8523 4.05569C48.9508 6.71913 50 10.2098 50 14.5278C50 19.1283 48.8701 23.7086 46.6102 28.2688C44.3906 32.8289 41.5456 36.3801 38.0751 38.9225L28.8741 35.7143C31.4568 33.6158 33.5755 31.1743 35.23 28.3898C36.8846 25.6053 37.7119 23.0831 37.7119 20.8232C34.9274 20.8232 32.6069 19.8547 30.7506 17.9177C28.9346 15.9403 28.0266 13.4383 28.0266 10.4116Z" fill="#CAE6D6"/>
</svg>
